<?xml version="1.0" standalone="no"?>
<!DOCTYPE svg PUBLIC "-//W3C//DTD SVG 20010904//EN"
 "http://www.w3.org/TR/2001/REC-SVG-20010904/DTD/svg10.dtd">
<svg version="1.0" xmlns="http://www.w3.org/2000/svg"
 width="281.000000pt" height="237.000000pt" viewBox="0 0 281.000000 237.000000"
 preserveAspectRatio="xMidYMid meet" >

<g transform="translate(0.000000,237.000000) scale(0.100000,-0.100000)"
fill="#ffffff" stroke="none">
<path d="M1365 2185 c-11 -6 -34 -21 -51 -31 l-32 -19 38 -53 39 -54 35 70
c35 70 35 76 1 94 -5 3 -19 0 -30 -7z"/>
<path d="M1415 2090 c-19 -38 -35 -75 -35 -82 0 -14 170 -268 179 -268 3 0 16
19 29 43 13 23 45 83 73 133 l49 91 -130 76 -130 76 -35 -69z"/>
<path d="M1025 1986 l-230 -134 -2 -38 c-3 -37 6 -50 137 -209 77 -93 143
-171 148 -172 4 -1 66 125 138 280 73 155 137 281 143 280 6 -2 11 2 11 7 0 5
-6 10 -14 10 -7 0 -30 25 -50 55 -20 30 -40 55 -44 55 -4 0 -111 -60 -237
-134z"/>
<path d="M1653 1856 c-40 -74 -73 -139 -73 -145 0 -9 267 -408 291 -435 4 -4
30 34 58 85 l51 94 -3 198 -2 199 -118 69 c-65 38 -121 69 -125 69 -4 0 -40
-61 -79 -134z"/>
<path d="M1231 1698 c-72 -156 -131 -287 -131 -291 0 -18 164 -207 172 -199 5
5 69 119 142 253 73 134 138 243 144 242 7 -2 12 2 12 7 0 6 -6 10 -13 10 -7
0 -53 59 -102 130 -49 72 -89 130 -90 130 -1 0 -61 -127 -134 -282z"/>
<path d="M790 1445 l0 -300 61 -34 c33 -18 63 -30 67 -26 4 3 39 75 78 158 39
84 76 151 83 149 6 -1 11 2 11 8 0 5 -6 10 -14 10 -10 0 -181 199 -273 319
-10 13 -12 -46 -13 -284z"/>
<path d="M1425 1435 c-95 -175 -144 -255 -155 -255 -10 0 -54 45 -100 100 -46
55 -85 98 -88 96 -13 -14 -142 -302 -138 -311 2 -6 45 -35 96 -64 73 -43 94
-51 101 -40 5 8 32 58 61 111 32 59 59 98 68 98 9 0 69 -65 135 -145 65 -79
121 -143 124 -141 91 48 208 127 220 147 9 15 39 70 66 122 l50 95 -100 148
c-55 81 -123 180 -151 220 l-50 73 -139 -254z"/>
<path d="M1934 1325 c-24 -45 -44 -73 -51 -70 -7 2 -13 0 -13 -5 0 -6 6 -10
13 -10 6 0 27 -23 46 -50 18 -28 37 -50 42 -50 5 0 9 59 9 130 0 72 -1 130 -3
130 -2 0 -21 -34 -43 -75z"/>
<path d="M1873 1208 c-13 -17 -93 -165 -93 -172 0 -3 36 16 80 41 44 26 80 51
80 55 0 8 -50 88 -55 88 -1 0 -7 -6 -12 -12z"/>
<path d="M1253 1118 c-54 -90 -94 -170 -91 -180 2 -6 53 -39 113 -74 l109 -63
58 32 c32 17 58 34 58 37 0 5 -194 246 -220 273 -4 5 -16 -6 -27 -25z"/>
<path d="M620 441 c0 -35 -2 -38 -25 -33 -44 8 -55 -12 -55 -98 0 -50 4 -81
13 -88 6 -6 33 -10 60 -10 l47 1 0 134 c0 126 -1 133 -20 133 -17 0 -20 -7
-20 -39z m0 -132 c0 -62 -2 -70 -17 -67 -14 2 -19 15 -21 57 -4 63 2 81 23 81
12 0 15 -14 15 -71z"/>
<path d="M1240 441 c0 -35 -2 -38 -25 -33 -44 8 -55 -12 -55 -98 0 -50 4 -81
13 -88 6 -6 33 -10 60 -10 l47 0 0 134 c0 127 -1 134 -20 134 -17 0 -20 -7
-20 -39z m-5 -132 c0 -50 -3 -64 -15 -64 -11 0 -16 14 -18 54 -4 61 3 84 21
78 8 -2 12 -25 12 -68z"/>
<path d="M1690 441 c0 -35 -2 -38 -25 -33 -44 8 -55 -12 -55 -98 0 -50 4 -81
13 -88 6 -6 33 -10 60 -10 l47 0 0 134 c0 127 -1 134 -20 134 -17 0 -20 -7
-20 -39z m-5 -132 c0 -50 -3 -64 -15 -64 -11 0 -16 14 -18 54 -4 61 3 84 21
78 8 -2 12 -25 12 -68z"/>
<path d="M170 340 c0 -123 1 -130 20 -130 17 0 20 7 20 50 0 34 4 50 13 50 7
0 20 -22 30 -50 13 -37 23 -50 37 -50 24 0 24 3 3 59 -13 33 -14 46 -5 49 8 2
12 28 12 72 0 77 -3 80 -81 80 l-49 0 0 -130z m90 50 c0 -47 -2 -50 -25 -50
-23 0 -25 3 -25 50 0 47 2 50 25 50 23 0 25 -3 25 -50z"/>
<path d="M2530 455 c0 -8 7 -15 15 -15 12 0 15 -19 15 -115 0 -108 1 -115 20
-115 19 0 20 7 20 130 l0 130 -35 0 c-24 0 -35 -5 -35 -15z"/>
<path d="M1980 425 c0 -8 -4 -15 -10 -15 -5 0 -10 -7 -10 -15 0 -8 5 -15 10
-15 6 0 10 -31 10 -73 0 -78 9 -97 47 -97 26 0 32 25 8 34 -11 4 -15 22 -15
71 0 51 3 65 15 65 8 0 15 7 15 15 0 8 -7 15 -15 15 -8 0 -15 7 -15 15 0 8 -9
15 -20 15 -11 0 -20 -7 -20 -15z"/>
<path d="M370 391 c-5 -11 -10 -47 -10 -81 0 -84 10 -100 63 -100 46 0 67 13
67 42 0 23 -29 24 -45 1 -17 -23 -45 -10 -45 22 0 23 4 25 45 25 l45 0 0 43
c0 54 -13 67 -67 67 -32 0 -45 -5 -53 -19z m78 -39 c3 -18 -1 -22 -22 -22 -19
0 -26 5 -26 18 0 39 43 43 48 4z"/>
<path d="M730 391 c-5 -11 -10 -47 -10 -81 0 -84 10 -100 63 -100 46 0 67 13
67 42 0 23 -29 24 -45 1 -17 -23 -47 -10 -43 19 2 19 10 24 46 26 l42 3 0 43
c0 53 -13 66 -67 66 -32 0 -45 -5 -53 -19z m78 -39 c3 -18 -1 -22 -22 -22 -19
0 -26 5 -26 18 0 39 43 43 48 4z"/>
<path d="M910 391 c-25 -48 -4 -101 40 -101 23 0 30 -5 30 -19 0 -27 -20 -38
-32 -17 -19 35 -57 12 -38 -24 8 -15 21 -20 49 -20 48 0 63 18 59 67 -3 35 -6
38 -38 43 -37 5 -52 32 -30 54 8 8 15 7 24 -6 17 -23 46 -23 46 0 0 28 -21 42
-62 42 -27 0 -40 -5 -48 -19z"/>
<path d="M1350 391 c-5 -11 -10 -47 -10 -81 0 -84 10 -100 63 -100 46 0 67 13
67 42 0 23 -29 24 -45 1 -17 -23 -47 -10 -43 19 2 19 10 24 46 26 l42 3 0 43
c0 53 -13 66 -67 66 -32 0 -45 -5 -53 -19z m78 -39 c3 -18 -1 -22 -22 -22 -19
0 -26 5 -26 18 0 39 43 43 48 4z"/>
<path d="M1801 397 c-16 -16 -15 -162 2 -175 6 -6 33 -10 60 -10 l47 0 0 98 0
98 -49 0 c-26 1 -53 -4 -60 -11z m64 -88 c0 -50 -3 -64 -15 -64 -11 0 -16 14
-18 54 -4 61 3 84 21 78 8 -2 12 -25 12 -68z"/>
<path d="M2100 391 c-5 -11 -10 -47 -10 -81 0 -84 10 -100 63 -100 24 0 48 5
55 12 7 7 12 42 12 88 0 46 -5 81 -12 88 -7 7 -31 12 -55 12 -32 0 -45 -5 -53
-19z m75 -81 c0 -58 -2 -65 -20 -65 -17 0 -20 8 -23 54 -4 65 2 84 25 79 15
-3 18 -14 18 -68z"/>
<path d="M2291 401 c-8 -5 -14 -26 -14 -51 0 -45 13 -60 51 -60 17 0 22 -6 22
-25 0 -16 -6 -25 -15 -25 -8 0 -15 7 -15 15 0 8 -9 15 -20 15 -14 0 -20 -7
-20 -24 0 -26 16 -36 60 -36 37 0 52 21 48 67 -3 35 -6 38 -35 41 -29 3 -33 7
-33 33 0 19 5 29 15 29 8 0 15 -7 15 -15 0 -8 9 -15 20 -15 23 0 27 29 8 48
-14 14 -67 16 -87 3z"/>
</g>
</svg>
